<?xml version="1.0" standalone="no"?>
<!DOCTYPE svg PUBLIC "-//W3C//DTD SVG 20010904//EN"
 "http://www.w3.org/TR/2001/REC-SVG-20010904/DTD/svg10.dtd">
<svg version="1.0" xmlns="http://www.w3.org/2000/svg"
 width="4000.000000pt" height="3337.000000pt" viewBox="0 0 4000.000000 3337.000000"
 preserveAspectRatio="xMidYMid meet">
<metadata>
Created by potrace 1.16, written by Peter Selinger 2001-2019
</metadata>
<g transform="translate(0.000000,3337.000000) scale(0.100000,-0.100000)"
fill="#000000" stroke="none">
<path d="M6833 33363 l-83 -4 0 -61 c0 -94 28 -260 61 -361 60 -186 174 -388
336 -595 109 -140 164 -201 653 -725 l45 -49 32 44 c173 241 464 427 764 488
265 55 815 0 1334 -131 995 -253 2024 -804 3745 -2002 1754 -1222 3249 -2426
4640 -3736 327 -308 1099 -1089 1312 -1326 1234 -1378 1974 -2478 2272 -3380
200 -602 176 -1099 -68 -1439 -55 -76 -182 -200 -261 -253 -137 -92 -312 -163
-502 -204 -72 -16 -147 -23 -283 -26 -199 -5 -293 5 -440 49 -69 20 -81 28
-151 98 -126 126 -217 277 -271 450 -19 63 -23 96 -22 200 0 139 16 200 75
292 60 94 253 199 609 333 113 43 240 94 283 114 l79 36 -63 90 c-438 632
-1481 1797 -2694 3010 -1725 1725 -3488 3249 -5049 4364 -1643 1173 -3036
1884 -4131 2106 -272 55 -376 66 -666 72 l-266 5 -12 -47 c-73 -290 -62 -673
29 -945 43 -129 190 -395 226 -407 5 -2 31 48 58 111 76 184 138 266 231 307
94 42 419 67 640 49 438 -34 876 -164 1475 -438 815 -373 2297 -1338 3865
-2517 2137 -1607 3958 -3239 4983 -4465 267 -319 522 -672 664 -920 l55 -95
-78 -11 c-43 -7 -138 -27 -211 -45 -172 -42 -270 -44 -345 -9 -41 20 -174 145
-645 606 -326 319 -701 684 -833 810 -2734 2623 -4982 4398 -6877 5433 -258
141 -753 382 -993 484 -759 322 -1432 492 -2036 514 l-177 6 -8 -89 c-12 -128
-9 -442 5 -559 33 -268 99 -508 196 -718 l27 -58 59 56 c153 141 328 223 557
260 140 24 435 16 607 -14 826 -146 1881 -663 3350 -1642 1472 -981 3214
-2286 5069 -3798 444 -361 1558 -1285 1624 -1346 10 -9 -14 -46 -123 -188 -75
-97 -139 -179 -144 -181 -4 -3 -194 165 -422 372 -1790 1627 -3063 2693 -4279
3584 -2374 1739 -4231 2588 -5660 2588 -201 0 -216 -3 -224 -44 -14 -74 -18
-386 -7 -491 16 -151 54 -335 97 -468 40 -125 122 -327 133 -327 4 0 29 23 56
51 142 145 338 236 590 275 134 21 412 14 584 -16 251 -42 519 -115 811 -222
1454 -530 4003 -2131 7125 -4473 400 -300 1081 -818 1134 -862 l33 -28 -12
-195 c-33 -549 62 -1067 275 -1505 474 -976 1435 -1349 2730 -1059 832 186
2055 767 3005 1427 959 667 1523 1309 1566 1781 15 171 -39 312 -170 441 -73
72 -209 164 -249 169 -7 0 -61 -62 -119 -139 -313 -414 -636 -741 -924 -936
-242 -163 -520 -259 -749 -259 -238 0 -493 95 -732 273 -204 153 -395 358
-799 857 -178 220 -745 841 -1344 1470 -880 924 -2048 2079 -2955 2920 -1479
1372 -3164 2802 -4365 3706 -1469 1105 -2424 1745 -3445 2307 -243 133 -824
422 -1070 531 -396 176 -1022 415 -1296 495 -307 89 -639 145 -1019 171 -133
9 -631 11 -827 3z"/>
<path d="M9511 25803 l-24 -5 6 -181 c8 -262 47 -467 128 -671 37 -93 110
-240 128 -259 5 -5 29 6 54 23 272 183 716 210 1275 75 1303 -314 3278 -1436
6057 -3440 332 -239 720 -525 1340 -985 558 -414 615 -456 615 -448 0 2 -109
108 -242 234 -1897 1799 -3903 3370 -5578 4369 -424 253 -1044 578 -1410 739
-733 323 -1358 501 -1914 546 -127 10 -388 12 -435 3z"/>
<path d="M0 24675 c0 -37 68 -215 134 -350 383 -782 1339 -1578 2903 -2416
345 -185 1258 -630 1291 -629 4 0 25 33 47 73 27 48 71 103 135 167 77 78 112
104 186 142 173 90 196 93 609 92 479 -1 863 -28 1434 -99 524 -66 959 -139
2046 -340 628 -117 1332 -238 1349 -232 6 2 -16 13 -49 24 -33 12 -193 69
-355 128 -578 209 -1395 477 -2010 659 -629 186 -1118 319 -2220 606 -833 217
-1055 276 -1375 366 -1669 470 -2812 967 -3982 1730 -86 56 -143 88 -143 79z"/>
<path d="M9901 24231 c-11 -7 -13 -42 -8 -192 7 -240 38 -405 114 -609 29 -77
115 -263 129 -279 1 -2 43 20 91 47 221 127 297 147 513 137 369 -17 675 -80
1140 -235 762 -254 1683 -704 2840 -1388 714 -422 1323 -811 2753 -1755 1012
-669 1027 -679 1027 -669 0 10 -268 251 -520 468 -1198 1030 -2571 2060 -3736
2801 -1607 1024 -2913 1584 -3894 1673 -140 12 -430 13 -449 1z"/>
<path d="M28930 22950 c-767 -42 -1509 -290 -2233 -748 -65 -41 -116 -79 -115
-86 2 -6 98 -74 213 -150 245 -163 328 -238 378 -343 30 -64 32 -74 31 -173
-1 -125 -39 -280 -129 -535 -178 -499 -223 -661 -232 -835 -11 -211 77 -396
260 -543 232 -186 612 -264 912 -188 181 47 349 160 432 294 72 114 72 105 7
257 -74 176 -111 250 -173 336 -59 84 -115 133 -197 171 -52 25 -71 28 -162
28 -81 0 -105 -3 -112 -15 -41 -65 -47 -308 -11 -435 23 -82 108 -270 162
-358 29 -47 29 -48 7 -42 -75 20 -195 94 -270 164 -263 247 -322 566 -141 762
64 68 119 104 201 129 191 59 338 27 687 -150 116 -58 248 -123 295 -143 93
-40 234 -77 292 -77 l36 0 145 218 c177 264 279 393 428 537 202 195 370 287
630 345 186 42 353 37 524 -17 265 -84 506 -277 667 -535 61 -97 104 -185 95
-194 -13 -13 -182 20 -462 91 -159 40 -339 83 -400 95 -222 42 -446 43 -600 1
-145 -40 -315 -141 -412 -244 -287 -307 -240 -880 98 -1203 242 -229 663 -360
1049 -325 370 34 648 156 915 402 360 332 745 556 1121 654 202 53 235 55 839
65 703 11 1484 26 2445 45 404 8 969 20 1255 25 286 6 987 13 1558 17 577 3
1032 10 1025 15 -43 28 -371 116 -548 147 -386 68 -692 78 -1679 56 -1200 -27
-1837 -11 -2731 70 -1522 139 -2129 330 -2538 800 -811 931 -1840 1492 -2937
1599 -197 19 -445 26 -625 16z m1838 -2335 c260 -50 546 -195 716 -360 53 -52
66 -69 55 -76 -24 -13 -206 -57 -329 -79 -269 -48 -747 -74 -1252 -68 l-267 3
38 81 c88 186 211 324 373 417 60 35 206 83 288 96 86 13 275 6 378 -14z"/>
<path d="M10881 22459 c-57 -5 -106 -11 -109 -14 -8 -8 18 -140 50 -254 57
-205 149 -423 270 -642 l70 -126 73 28 c209 81 432 113 740 106 335 -8 649
-62 1065 -182 611 -177 1222 -430 2075 -860 593 -299 966 -504 2065 -1135 644
-370 650 -373 650 -366 0 2 -78 67 -172 143 -1015 819 -2144 1596 -3122 2147
-1497 844 -2723 1231 -3655 1155z"/>
<path d="M5850 21179 c-69 -5 -168 -14 -220 -21 l-95 -13 -8 -60 c-13 -92 0
-245 25 -312 35 -96 209 -254 458 -418 184 -121 270 -167 767 -415 l452 -225
108 165 c126 192 240 316 339 368 138 72 562 165 949 207 373 41 1052 45 1845
11 201 -8 434 -17 518 -19 l152 -4 0 27 0 26 -232 33 c-297 42 -772 121 -1556
260 -705 125 -1117 194 -1471 246 -885 129 -1553 176 -2031 144z"/>
<path d="M11838 20901 l-36 -6 43 -150 c163 -566 364 -945 668 -1262 l80 -83
106 103 c246 237 481 364 736 398 202 27 688 -15 1078 -92 508 -100 993 -258
1977 -644 513 -201 712 -276 718 -271 6 7 -174 138 -363 265 -839 564 -1902
1090 -2820 1396 -731 244 -1347 357 -1930 354 -121 -1 -237 -5 -257 -8z"/>
<path d="M9715 19784 c-816 -30 -1349 -94 -1675 -200 -158 -52 -155 -47 -95
-136 72 -107 212 -242 340 -327 188 -126 420 -227 747 -325 l157 -48 113 114
c423 426 957 643 2035 824 123 21 222 39 220 40 -5 6 -360 33 -557 44 -193 11
-1111 21 -1285 14z"/>
<path d="M38355 19610 c-115 -5 -361 -18 -545 -30 -925 -56 -1471 -75 -2080
-74 -273 1 -420 6 -635 23 -348 28 -888 39 -1101 22 -696 -56 -1353 -256
-2163 -659 -117 -58 -216 -112 -219 -120 -2 -8 16 -92 42 -187 81 -301 64
-388 -98 -493 -306 -198 -614 -352 -930 -467 -767 -278 -1308 -248 -1483 81
-64 120 -71 231 -23 368 39 115 100 202 267 381 140 151 213 233 242 273 l21
30 -89 46 c-120 62 -273 112 -422 137 -108 18 -152 20 -339 16 -232 -5 -346
-20 -580 -78 -236 -59 -627 -200 -855 -309 -337 -162 -585 -416 -683 -702 -28
-84 -36 -122 -40 -210 -5 -121 3 -177 54 -348 234 -795 225 -1686 -27 -2695
-110 -440 -240 -830 -469 -1410 -76 -192 -180 -462 -230 -600 -238 -646 -364
-919 -555 -1205 -159 -236 -324 -414 -437 -469 -284 -140 -569 36 -884 545
-132 213 -212 412 -259 648 -35 177 -45 291 -45 524 0 240 14 400 75 887 66
521 78 687 72 965 -8 334 -24 424 -151 846 -94 313 -139 434 -220 599 -77 157
-159 273 -264 379 l-80 78 -35 -108 c-164 -497 -278 -1078 -317 -1599 -13
-182 -13 -654 1 -826 86 -1104 478 -2058 1193 -2913 183 -219 469 -501 721
-711 481 -402 1154 -806 1795 -1078 230 -97 260 -109 260 -98 0 5 -41 107 -91
227 -310 750 -391 983 -449 1304 -50 282 -53 675 -6 943 111 637 409 1318 897
2052 646 970 1545 1891 2424 2481 188 126 257 167 865 514 1323 755 1735 1037
2455 1679 121 108 263 231 315 273 542 435 1175 617 2370 678 112 6 436 13
720 15 818 7 1006 26 2225 230 275 46 572 94 660 107 152 22 157 23 105 30
-98 11 -759 17 -975 8z"/>
<path d="M11915 19108 c-811 -296 -1051 -420 -1332 -692 -139 -134 -168 -184
-167 -291 2 -252 306 -468 746 -530 106 -15 358 -21 358 -8 0 4 -24 79 -54
168 -112 330 -114 448 -12 662 79 165 186 305 416 548 169 178 175 185 164
184 -5 0 -58 -19 -119 -41z"/>
<path d="M13565 19000 c-129 -8 -282 -26 -319 -37 -17 -5 -18 -13 -13 -97 16
-230 112 -437 292 -625 80 -84 254 -223 295 -236 17 -5 34 5 83 52 134 129
311 239 450 282 220 67 736 106 1206 90 300 -10 522 -28 1056 -84 356 -37 545
-56 802 -79 24 -2 40 0 38 4 -8 12 -439 153 -686 224 -903 258 -1860 445
-2539 495 -202 15 -518 20 -665 11z"/>
<path d="M12496 18642 c-69 -107 -162 -298 -200 -414 -51 -152 -77 -293 -83
-457 l-6 -144 89 7 c228 17 713 92 720 111 8 20 -90 259 -185 452 -86 175
-172 330 -251 455 l-38 61 -46 -71z"/>
<path d="M25040 18675 c-229 -49 -519 -162 -775 -302 -294 -161 -564 -348
-1096 -760 -190 -148 -412 -319 -494 -382 -81 -62 -211 -168 -289 -234 -178
-152 -626 -600 -777 -777 -616 -720 -1065 -1471 -1441 -2410 -350 -876 -551
-1766 -608 -2700 -13 -215 -13 -793 0 -1013 87 -1435 479 -2837 1281 -4578
399 -865 1528 -3025 2162 -4134 259 -454 464 -775 605 -952 111 -137 261 -278
386 -362 59 -39 111 -71 115 -71 8 0 61 172 81 262 48 222 63 590 36 873 -42
439 -152 992 -257 1292 -72 205 -162 357 -275 463 -101 94 -99 94 -112 -3 -17
-122 -30 -267 -47 -517 -26 -386 -63 -690 -82 -690 -3 0 -39 18 -79 41 -267
147 -498 382 -738 752 -138 213 -360 583 -454 757 -128 237 -426 837 -546
1098 -581 1267 -938 2429 -1081 3517 l-6 40 46 -50 c117 -128 309 -423 745
-1145 804 -1332 1186 -1923 1703 -2635 780 -1073 1600 -1977 2392 -2635 167
-140 177 -147 465 -361 433 -322 572 -391 832 -414 65 -6 79 -4 84 8 16 44
-101 357 -231 617 -325 650 -756 1182 -1100 1358 l-60 31 -7 -27 c-3 -15 -21
-137 -38 -272 -18 -135 -36 -249 -40 -253 -17 -19 -173 71 -347 199 -646 478
-1634 1642 -2478 2919 -856 1296 -1421 2475 -1573 3285 -22 113 -37 238 -29
230 2 -3 64 -102 137 -220 913 -1482 1825 -2716 2799 -3785 310 -340 890 -912
1241 -1225 393 -349 924 -768 1270 -1003 80 -54 190 -129 245 -167 140 -97
264 -164 375 -201 79 -27 114 -33 213 -37 64 -2 117 -2 117 0 0 3 -18 66 -40
141 -186 637 -532 1259 -1009 1817 -107 125 -349 380 -360 380 -9 0 1 -107 44
-460 19 -157 39 -334 45 -395 5 -60 12 -134 15 -162 4 -39 2 -53 -7 -53 -29 0
-242 101 -353 167 -368 218 -742 529 -1261 1047 -486 487 -882 941 -1280 1471
-967 1286 -1517 2426 -1551 3215 -5 120 -4 133 10 120 8 -8 176 -215 373 -460
954 -1186 1486 -1792 2194 -2500 978 -980 1865 -1683 2795 -2218 161 -92 666
-352 685 -352 11 0 -7 103 -36 205 -130 459 -571 1210 -1045 1780 -84 101
-386 412 -393 404 -2 -2 -9 -173 -15 -379 -7 -206 -15 -390 -18 -409 l-6 -34
-71 6 c-512 39 -1681 1124 -2609 2421 -688 961 -1097 1832 -1147 2441 -9 121
-1 273 21 358 11 44 11 44 62 51 199 23 388 -16 632 -133 141 -68 480 -267
790 -464 1470 -935 2280 -1690 2431 -2262 16 -64 27 -247 14 -257 -9 -8 -239
11 -330 27 -123 21 -247 58 -333 100 -147 70 -450 276 -696 473 -252 202 -451
391 -1091 1032 -366 366 -690 686 -720 711 -56 47 -290 174 -290 158 0 -47
156 -360 277 -554 266 -427 611 -844 1123 -1356 370 -370 606 -582 990 -890
898 -719 1799 -1221 2467 -1373 l61 -14 8 77 c11 111 8 448 -5 576 -74 710
-362 1348 -810 1796 -105 104 -108 106 -311 214 -903 478 -1712 1024 -2344
1585 -1432 1268 -2098 2720 -1940 4229 99 951 533 1931 1220 2756 420 504 902
915 1324 1129 508 259 795 186 766 -194 -22 -283 -103 -557 -362 -1228 -336
-868 -468 -1265 -584 -1745 -169 -708 -238 -1429 -200 -2117 15 -275 59 -692
74 -707 13 -13 142 81 227 166 141 141 202 242 387 635 425 905 742 2050 846
3056 41 396 46 963 12 1260 -84 717 -304 1152 -642 1271 -76 27 -216 33 -304
14z"/>
<path d="M15760 17824 c-19 -2 -98 -9 -175 -15 -374 -29 -752 -115 -1055 -239
-127 -52 -317 -147 -361 -181 l-24 -18 25 -48 c84 -161 252 -373 393 -494 81
-69 279 -209 297 -209 5 0 35 35 66 77 189 255 474 474 804 616 310 134 627
217 1269 332 341 62 653 123 684 134 12 4 -91 11 -229 15 -137 4 -325 11 -419
17 -173 9 -1211 20 -1275 13z"/>
<path d="M17374 17070 c-1057 -113 -1722 -354 -2243 -814 -56 -49 -101 -95
-101 -101 0 -7 32 -60 70 -118 82 -125 220 -273 332 -357 71 -54 303 -180 311
-169 2 2 18 49 36 104 73 223 190 413 368 596 254 262 524 434 1144 730 161
77 295 142 298 145 7 6 -27 4 -215 -16z"/>
<path d="M18160 16709 c-989 -537 -1496 -994 -1766 -1590 l-35 -79 27 -50 c43
-79 130 -155 236 -205 102 -48 219 -80 435 -119 78 -15 148 -28 155 -31 10 -4
13 36 13 202 0 182 3 221 23 313 35 152 75 268 147 416 142 295 347 569 763
1018 167 180 217 236 210 236 -2 0 -95 -50 -208 -111z"/>
<path d="M19646 16557 c-324 -816 -456 -1365 -456 -1892 0 -192 32 -472 71
-619 l11 -39 121 6 c187 10 353 52 543 137 89 40 244 129 244 140 0 5 -21 32
-46 62 -221 256 -362 607 -421 1048 -23 169 -25 758 -5 1098 8 123 12 225 10
227 -2 3 -35 -73 -72 -168z"/>
<path d="M18935 16388 c-501 -493 -712 -744 -911 -1085 -165 -283 -272 -606
-290 -874 l-7 -97 89 -20 c235 -55 488 -79 705 -68 75 5 141 11 147 15 8 5 2
31 -19 86 -17 44 -43 129 -57 190 -24 101 -26 127 -26 330 0 202 2 231 27 348
32 148 103 371 172 537 62 147 219 456 369 724 64 115 115 211 113 213 -2 2
-143 -133 -312 -299z"/>
</g>
</svg>
